# xmcd
#
# Track frame offsets:
#	150
#	12987
#	28255
#	38310
#	50980
#	65395
#	76815
#	93640
#	103940
#	116035
#	132062
#	144352
#	155227
#	173210
#	185862
#	196402
#	207162
#	219050
#
# Disc length: 3094 seconds
#
# Revision: 0
# Processed by: cddbd v1.5.1PL0 Copyright (c) Steve Scherf et al.
# Submitted via: dBpowerAMP V4.0
#
DISCID=030c1412
DTITLE=Various Artist - Sisters Of Soul
DYEAR=1998
DGENRE=Soul
TTITLE0=Rescue Me
TTITLE1=I Heard It Through The Grapevine
TTITLE2=Gee Whiz (Look At His Eyes)
TTITLE3=My Guy
TTITLE4=Love Makes A Woman
TTITLE5=Baby It's You
TTITLE6=Midnight At The Oasis
TTITLE7=He's A Rebel
TTITLE8=Just One Look
TTITLE9=I Will
TTITLE10=Heatwave
TTITLE11=It's In His Kiss
TTITLE12=I'm A Woman
TTITLE13=B-A-B-Y
TTITLE14=I Know (You Don't Love Me No More)
TTITLE15=There's No Other (Like My Baby)
TTITLE16=Will You Love Me Tomorrow?
TTITLE17=Two Lovers
EXTD=
EXTT0=
EXTT1=
EXTT2=
EXTT3=
EXTT4=
EXTT5=
EXTT6=
EXTT7=
EXTT8=
EXTT9=
EXTT10=
EXTT11=
EXTT12=
EXTT13=
EXTT14=
EXTT15=
EXTT16=
EXTT17=
PLAYORDER=
